<?xml version="1.0" encoding="utf-8"?>
<!-- Generator: Adobe Illustrator 25.0.1, SVG Export Plug-In . SVG Version: 6.00 Build 0)  -->
<svg version="1.1" id="Layer_1" xmlns="http://www.w3.org/2000/svg" xmlns:xlink="http://www.w3.org/1999/xlink" x="0px" y="0px"
	 viewBox="0 0 1080 792" style="enable-background:new 0 0 1080 792;" xml:space="preserve">
<style type="text/css">
	.st0{fill:#ED1C24;}
</style>
<g>
	<polygon points="432.3,483.3 243.1,484.1 198.5,570.4 199,309.7 243.1,264.6 471.7,264.1 448.3,318 448.3,472.3 	"/>
	<path d="M578,386.6h-45.3V271.3h17.2v100H578V386.6z"/>
	<path d="M635.5,377.4c0,6.1-3.2,9.2-9.5,9.2h-29.1c-6.3,0-9.5-3.1-9.5-9.2v-56c0-6.1,3.2-9.2,9.5-9.2H626c6.3,0,9.5,3.1,9.5,9.2
		v27.4l-4.6,4.6h-27.3v20.9h15.8v-12.4h16.2L635.5,377.4L635.5,377.4z M619.3,342.4v-17.8h-15.8v17.8H619.3z"/>
	<path d="M698.2,312.2l-19,74.6H663l-19-74.6h17.3l9.8,49l9.8-49H698.2z"/>
	<path d="M754.6,377.4c0,6.1-3.2,9.2-9.5,9.2H716c-6.3,0-9.5-3.1-9.5-9.2v-56c0-6.1,3.2-9.2,9.5-9.2h29.1c6.3,0,9.5,3.1,9.5,9.2
		v27.4l-4.6,4.6h-27.3v20.9h15.8v-12.4h16.2L754.6,377.4L754.6,377.4z M738.5,342.4v-17.8h-15.8v17.8H738.5z"/>
	<path d="M783.9,386.6h-16.6V271.3h16.6V386.6z"/>
	<path d="M886.2,376.1c0,7-3.5,10.5-10.6,10.5h-36.6c-7,0-10.5-3.5-10.5-10.5V271.3h17.2v100.6h23.2V271.3h17.2L886.2,376.1
		L886.2,376.1z"/>
	<path d="M948.8,371.7c0,6-2.2,10.3-6.5,12.7c-3.2,1.7-7.9,2.6-14.3,2.6c-1.5,0-3.5,0-6.2-0.1s-4.6-0.1-5.8-0.1v27.2h-16.9V312.2
		H916v2.7c3.9-0.6,7.9-1.2,11.8-1.8c5-0.8,8.9-1.2,11.8-1.2c6.1,0,9.2,3,9.2,9.1L948.8,371.7L948.8,371.7z M931.9,367v-40.8
		l-15.8,0.3v46.1h10.5C930.1,372.6,931.9,370.8,931.9,367z"/>
	<path d="M578,538.6h-45.3V423.2h17.2v100H578V538.6z"/>
	<path d="M636.4,529.4c0,6.1-3.1,9.2-9.4,9.2h-30.2c-6.3,0-9.5-3.1-9.5-9.2v-56c0-6.1,3.2-9.2,9.5-9.2h30.2c6.2,0,9.4,3.1,9.4,9.2
		V529.4z M619.9,524.6v-46.4h-16v46.4H619.9z"/>
	<path d="M698.2,538.6h-16.8v-2.6c-3.9,0.6-7.8,1.3-11.7,1.9c-4.8,0.7-8.7,1.1-11.8,1.1c-6.1,0-9.2-3.1-9.2-9.2v-65.7h16.7v60.5
		l16-0.4v-60.1h16.8L698.2,538.6L698.2,538.6z"/>
	<path d="M760.1,538.6h-17v-60.4l-15.8,0.3v60.1h-16.9v-74.5h16.9v2.7c3.9-0.6,7.8-1.2,11.7-1.8c4.8-0.8,8.8-1.2,11.9-1.2
		c6.1,0,9.2,3,9.2,9.1L760.1,538.6L760.1,538.6z"/>
	<path d="M821.6,556.6c0,6.1-3.2,9.2-9.5,9.2h-29.3c-6.3,0-9.5-3.1-9.5-9.2v-12h16.3v8.9h15.3v-15.4h-17.3c-4.7,0-8.5-1.3-11.2-4
		c-2.8-2.7-4.2-6.3-4.2-11v-45.6c0-4.3,1.2-7.6,3.6-10.1s5.7-3.7,10-3.7c2.1,0,8.5,1,19.2,3v-2.7h16.8L821.6,556.6L821.6,556.6z
		 M804.8,524.6v-45.8c-5.7-0.6-9.2-0.9-10.5-0.9c-3.6,0-5.5,1.8-5.5,5.4V519c0,3.7,1.9,5.6,5.6,5.6L804.8,524.6L804.8,524.6z"/>
	<path d="M882,529.4c0,6.1-3.2,9.2-9.5,9.2h-29.1c-6.3,0-9.5-3.1-9.5-9.2v-56c0-6.1,3.2-9.2,9.5-9.2h29.1c6.3,0,9.5,3.1,9.5,9.2
		v27.4l-4.6,4.6H850v20.9h15.8v-12.4H882L882,529.4L882,529.4z M865.8,494.4v-17.8H850v17.8H865.8z"/>
	<polygon points="456,311.4 496.7,254.5 496.7,463.5 456,570.4 	"/>
	<polygon class="st0" points="172.7,570.4 198.5,570.4 199,309.7 243.1,264.6 471.7,264.1 432.3,311.4 432.3,570.4 456,570.4 
		456,311.4 496.7,254.5 236.5,254.5 172.7,311.4 	"/>
	<g>
		<path class="st0" d="M371.1,363.7c0,3.5-1.2,7.4-3.6,11.7L336.8,429h34.2v14.6h-54.1v-10.3l37.8-66.5v-20.6h-20.3v20.8H318v-24.8
			c0-6.8,3.4-10.1,10.2-10.1h32.7c6.8,0,10.2,3.4,10.2,10.1L371.1,363.7L371.1,363.7z"/>
	</g>
</g>
</svg>
